<svg version="1.1" id="Layer_1" xmlns="http://www.w3.org/2000/svg" x="0px" y="0px" viewBox="0 0 500 192" style="enable-background:new 0 0 500 192" class="sm:h-28 h-20 w-auto"><g><g><path d="M138.12,80.63l3.99-3.41c1.65-1.05,3.15-2.34,4.45-3.79c3.39-3.8,5.44-8.81,5.44-14.29c0-8.84-5.35-16.44-12.99-19.74 c-2.6-1.12-5.49-1.75-8.51-1.75H63.65c-11.65,0-21.57,9.06-21.98,20.71c-0.43,12.22,9.35,22.27,21.48,22.27h33.79 c7.88,0,14.72,5.96,15.23,13.82c0.02,0.34,0.03,0.68,0.03,1.03c0,3.19-0.96,6.17-2.61,8.65L138.12,80.63z"></path><path d="M55.53,111.37l-3.99,3.41c-1.65,1.05-3.15,2.34-4.45,3.79c-3.39,3.8-5.44,8.81-5.44,14.29c0,8.84,5.35,16.44,12.99,19.74 c2.6,1.12,5.49,1.75,8.51,1.75h67.35c12.14,0,21.92-10.06,21.48-22.28c-0.42-11.64-10.35-20.69-22-20.69H96.71 c-7.88,0-14.72-5.96-15.23-13.82c-0.02-0.34-0.03-0.68-0.03-1.03c0-3.19,0.96-6.17,2.61-8.65L55.53,111.37z"></path></g><g><g><path d="M234.06,109.86v9.79h-45.38v-7.79l28.47-34.33h-27.88v-9.79h43.67v7.78l-28.4,34.33H234.06z"></path><path d="M239.55,67.75c0-3.63,2.89-6.45,7.19-6.45c4.3,0,7.19,2.67,7.19,6.23c0,3.86-2.89,6.67-7.19,6.67 C242.44,74.2,239.55,71.38,239.55,67.75z M240.95,79.76h11.57v39.89h-11.57V79.76z"></path><path d="M306.72,99.71c0,12.53-8.68,20.54-19.87,20.54c-4.97,0-9.04-1.56-12.01-4.82v18.61h-11.57V79.76h11.05v4.6 c2.89-3.48,7.19-5.19,12.53-5.19C298.04,79.17,306.72,87.17,306.72,99.71z M295.01,99.71c0-6.9-4.38-11.05-10.16-11.05 s-10.16,4.15-10.16,11.05s4.38,11.05,10.16,11.05S295.01,106.6,295.01,99.71z"></path><path d="M355.21,96.81v22.84h-11.57V98.59c0-6.45-2.96-9.42-8.08-9.42c-5.56,0-9.56,3.41-9.56,10.75v19.72h-11.57V64.64H326 v19.28c3.12-3.11,7.56-4.75,12.68-4.75C348.09,79.17,355.21,84.65,355.21,96.81z"></path><path d="M364.25,67.75c0-3.63,2.89-6.45,7.19-6.45c4.3,0,7.19,2.67,7.19,6.23c0,3.86-2.89,6.67-7.19,6.67 C367.15,74.2,364.25,71.38,364.25,67.75z M365.66,79.76h11.57v39.89h-11.57V79.76z"></path><path d="M412.74,79.17v10.68c-0.96-0.07-1.71-0.15-2.59-0.15c-6.38,0-10.6,3.48-10.6,11.12v18.83h-11.57V79.76h11.05v5.26 C401.84,81.17,406.59,79.17,412.74,79.17z"></path><path d="M458.12,102.97h-30.18c1.11,4.97,5.34,8.01,11.42,8.01c4.23,0,7.27-1.26,10.01-3.86l6.15,6.67 c-3.71,4.23-9.27,6.45-16.46,6.45c-13.79,0-22.76-8.67-22.76-20.54c0-11.94,9.12-20.54,21.28-20.54 c11.71,0,20.76,7.86,20.76,20.69C458.34,100.74,458.19,102,458.12,102.97z M427.79,96.22h19.65c-0.81-5.04-4.6-8.3-9.79-8.3 C432.39,87.92,428.61,91.1,427.79,96.22z"></path></g></g></g></svg>